<svg xmlns="http://www.w3.org/2000/svg" width="1200" height="630" viewBox="0 0 1200 630">
  <defs>
    <linearGradient id="bg" x1="0" x2="1" y1="0" y2="1">
      <stop offset="0%" stop-color="#020617" />
      <stop offset="50%" stop-color="#111827" />
      <stop offset="100%" stop-color="#0f172a" />
    </linearGradient>
  </defs>
  <rect width="1200" height="630" fill="url(#bg)" />

  <!-- Subtle grid / board motif -->
  <g transform="translate(350,160)" opacity="0.18">
    <rect x="0" y="0" width="80" height="80" rx="6" fill="#1f2937" />
    <rect x="100" y="0" width="80" height="80" rx="6" fill="#1f2937" />
    <rect x="200" y="0" width="80" height="80" rx="6" fill="#1f2937" />
    <rect x="300" y="0" width="80" height="80" rx="6" fill="#1f2937" />

    <rect x="0" y="100" width="80" height="80" rx="6" fill="#1f2937" />
    <rect x="100" y="100" width="80" height="80" rx="6" fill="#1f2937" />
    <rect x="200" y="100" width="80" height="80" rx="6" fill="#1f2937" />
    <rect x="300" y="100" width="80" height="80" rx="6" fill="#1f2937" />

    <rect x="0" y="200" width="80" height="80" rx="6" fill="#1f2937" />
    <rect x="100" y="200" width="80" height="80" rx="6" fill="#1f2937" />
    <rect x="200" y="200" width="80" height="80" rx="6" fill="#1f2937" />
    <rect x="300" y="200" width="80" height="80" rx="6" fill="#1f2937" />
  </g>

  <!-- Brand text -->
  <text x="150" y="250" fill="#e5e7eb" font-family="system-ui, -apple-system, BlinkMacSystemFont, 'Inter', sans-serif" font-size="32" letter-spacing="4">
    WORDLE-STYLE PUZZLE GAMES
  </text>

  <text x="150" y="330" fill="#f9fafb" font-family="system-ui, -apple-system, BlinkMacSystemFont, 'Inter', sans-serif" font-size="76" font-weight="700" letter-spacing="6">
    WUZZLE GAMES
  </text>

  <text x="150" y="390" fill="#9ca3af" font-family="system-ui, -apple-system, BlinkMacSystemFont, 'Inter', sans-serif" font-size="26">
    Multi-board • Marathon • Speedrun • Multiplayer with Friends
  </text>

  <!-- Highlight pill -->
  <g transform="translate(150,430)">
    <rect x="0" y="-32" rx="18" ry="18" width="420" height="52" fill="#16a34a" />
    <text x="24" y="2" fill="#ecfdf5" font-family="system-ui, -apple-system, BlinkMacSystemFont, 'Inter', sans-serif" font-size="22" font-weight="600">
      Free Wordle-style game in your browser
    </text>
  </g>
</svg>
